<?xml version="1.0" encoding="UTF-8"?>
<svg id="Laag_1" data-name="Laag 1" xmlns="http://www.w3.org/2000/svg" viewBox="0 0 629.83 676.8">
  <defs>
    <style>
      .cls-1 {
        stroke-width: 0px;
      }

      .cls-1, .cls-2, .cls-3 {
        fill: #000;
      }

      .cls-2 {
        font-family: Candara-Bold, Candara;
        font-size: 28px;
        font-weight: 700;
      }

      .cls-2, .cls-4, .cls-3 {
        isolation: isolate;
      }

      .cls-3 {
        font-family: FreestyleScript-Regular, 'Freestyle Script';
        font-size: 194px;
      }
    </style>
  </defs>
  <g id="Frame">
    <path class="cls-1" d="M4.71,220.78c-.5,1.59-6.06,20.84-4.4,20.94l1.31,2.55c1.23.07,3.06-2.84,3.42-4.01.92-3.07,4.99-21.21,6.49-24.62,3.32-7.57,8.82-24.4,12.78-31.66,8.8-16.13,17.08-29.87,28.47-44.49,4.77-6.12,8.24-9.85,12.87-16.08,7.38-9.94,10.3-11.39,19.69-21.62,3.27-3.56,10.67-10.63,14.21-13.93,5.63-5.26,13.11-11.17,19.53-16.15,7.74-6.01,15.1-10.55,23.11-16.17,11.94-8.37,20.91-13.61,33.84-20.14,16.3-8.22,34.67-14.64,52.66-18.45,14-2.97,16.95-3.34,31.05-5.77,9.64-1.66,21.35-3.98,31.26-4.84,5.88-.51,17.05-.47,23.59-.88,2.66-.17,5.33-.14,7.99.07,14.89,1.2,28.08,2.74,40.9,5.08,15.73,2.87,24.41,4.62,44.23,10.05,10.7,2.93,19.29,5.59,29.22,9.46,11.33,4.42,24.66,11.27,33.76,16.7,12.5,7.46,21.79,13.64,32.92,21.77,11.54,8.42,21.22,16.16,31.99,25.56,8.68,7.58,15.37,16.16,23.29,24.52,16.52,17.44,30.19,36.64,41.78,58.06,6.63,12.25,13.81,26.76,18.25,41.53.52,1.72,5.58,18.67,5.81,23.58.03.64.25,1.17.57,1.58,1.37,1.76,4.25.72,4.42-1.5.04-.5.07-.89.08-.89.39.02-2.76-13.88-2.87-14.25-1.31-4.38-1.85-8.3-3.48-12.66-2.71-7.22-6.09-14.18-8.97-21.34-6.12-15.22-15.51-29.44-25.17-45.14-8.57-13.93-18.31-23.53-29.12-35.81-6.18-7.01-13.08-13.39-19.82-19.9-13.82-13.34-22.26-18.77-39.63-31.62-5.04-3.73-13-8.73-18.22-12.22-11.45-7.66-24.11-15.44-37.28-20.39-14.1-5.3-34.4-12.75-49.34-16.23-20.64-4.81-30.8-6.7-49.12-8.77-9.23-1.04-17.98-2.39-27.19-2.63-13.63-.35-28.79.74-42.22,2.49-14.08,1.83-28.02,4.8-41.93,7.74-18.19,3.84-35.94,9.27-53.23,16.14-8.91,3.54-17.6,7.5-25.42,13.16-6.11,4.43-17.84,11.05-23.95,15.49-11.62,8.42-17.18,12.1-24.69,17.74-1.39,1.04-11.06,10.5-12.39,11.64-13.62,11.69-22.65,20.89-31.75,32.91-11.09,14.64-14.6,18.54-19.7,26.14-4.6,6.85-12.44,17.77-16.78,24.79-6.37,10.31-9.67,17.34-15.95,31.63"/>
    <path class="cls-1" d="M136.43,604.52c.03-.08.06-.17.1-.25.34-.84.23-1.82-.4-2.47-.05-.06-.11-.1-.15-.13-2.9-2-9.22-5.17-12.19-7.08-5.48-3.53-7.72-5.15-12.44-8.87-9.87-7.79-19.97-16.81-27.04-24.79-12.83-14.48-24.31-25.28-35.21-41.41-14.01-20.73-24.53-41.18-34.56-62.97-3.37-7.31-4.22-11.14-6.91-18.38-.34-.92-1.16-3.47-2.14-3.49-.27,0-1.22.02-1.46,0-1.67-.13-1.22,2.69-.67,4.27.67,1.96,1.49,4.33,2.05,5.93,4.84,13.96,3.36,10.24,10,24.28,4.71,9.96,14.26,28.12,19.67,37.71,9.69,17.2,20.96,30.15,34.15,44.71,2.71,2.99,12.34,13.36,15.03,16.35,12.71,14.16,22.84,20.07,36.53,30.15,3.86,2.85,8.18,5.05,12.27,7.57,1.24.77,2.88.21,3.4-1.15l-.03.02Z"/>
    <path class="cls-1" d="M620.23,433.6c-3.53,15.07-3.12,17.19-9.06,30.46-1.35,3.02-6.68,12.51-8.75,16.8-.33.69-.21,1.51.31,2.08.01.01.02.03.04.04,1.38,1.5,3.82,1.19,4.76-.61,2.68-5.14,6.79-12.75,8.35-16.39,2.65-6.17,6.2-20.41,8.98-28.72.74-2.2-.82-4.6-3.13-4.61-.74,0-1.33.24-1.5.95h0Z"/>
  </g>
  <g id="Text" class="cls-4">
    <text class="cls-2" transform="translate(173.75 638.01) rotate(23.49)"><tspan x="0" y="0">F</tspan></text>
  </g>
  <g class="cls-4">
    <text class="cls-2" transform="translate(195.75 647.23) rotate(19.15)"><tspan x="0" y="0">A</tspan></text>
  </g>
  <g class="cls-4">
    <text class="cls-2" transform="translate(222.81 656.25) rotate(13.79)"><tspan x="0" y="0">M</tspan></text>
  </g>
  <g class="cls-4">
    <text class="cls-2" transform="translate(256.86 663.85) rotate(9.29)"><tspan x="0" y="0">I</tspan></text>
  </g>
  <g class="cls-4">
    <text class="cls-2" transform="translate(275 666.57) rotate(5.71)"><tspan x="0" y="0">L</tspan></text>
  </g>
  <g class="cls-4">
    <text class="cls-2" transform="translate(298.17 668.58) rotate(1.65)"><tspan x="0" y="0">Y</tspan></text>
  </g>
  <g class="cls-4">
    <text class="cls-2" transform="translate(340.83 668.19) rotate(-5.93)"><tspan x="0" y="0">S</tspan></text>
  </g>
  <g class="cls-4">
    <text class="cls-2" transform="translate(365.86 665.43) rotate(-9.81)"><tspan x="0" y="0">H</tspan></text>
  </g>
  <g class="cls-4">
    <text class="cls-2" transform="translate(394.46 660.04) rotate(-14.78)"><tspan x="0" y="0">O</tspan></text>
  </g>
  <g class="cls-4">
    <text class="cls-2" transform="translate(423.6 651.81) rotate(-19.54)"><tspan x="0" y="0">P</tspan></text>
  </g>
  <g class="cls-4">
    <text class="cls-2" transform="translate(448.21 642.63) rotate(-23.98)"><tspan x="0" y="0">P</tspan></text>
  </g>
  <g class="cls-4">
    <text class="cls-2" transform="translate(471.85 631.6) rotate(-27.72)"><tspan x="0" y="0">I</tspan></text>
  </g>
  <g class="cls-4">
    <text class="cls-2" transform="translate(488.1 622.86) rotate(-31.73)"><tspan x="0" y="0">N</tspan></text>
  </g>
  <g class="cls-4">
    <text class="cls-2" transform="translate(512.81 607.01) rotate(-36.56)"><tspan x="0" y="0">G</tspan></text>
  </g>
  <g class="cls-4">
    <text class="cls-2" transform="translate(535.11 589.88) rotate(-40.94)"><tspan x="0" y="0">L</tspan></text>
  </g>
  <g class="cls-4">
    <text class="cls-2" transform="translate(553.03 573.79) rotate(-44.47)"><tspan x="0" y="0">I</tspan></text>
  </g>
  <g class="cls-4">
    <text class="cls-2" transform="translate(565.96 560.78) rotate(-48.09)"><tspan x="0" y="0">S</tspan></text>
  </g>
  <g class="cls-4">
    <text class="cls-2" transform="translate(582.57 541.68) rotate(-52.31)"><tspan x="0" y="0">T</tspan></text>
  </g>
  <g id="Text-2" class="cls-4">
    <text class="cls-3" transform="translate(38.11 397.44)"><tspan x="0" y="0">FAMLIST</tspan></text>
  </g>
</svg>